<svg xmlns="http://www.w3.org/2000/svg" viewBox="0 0 24 24" fill="none" stroke="currentColor" stroke-width="2" stroke-linecap="round" stroke-linejoin="round">
  <!-- Brain/AI icon -->
  <path d="M12 2a3 3 0 0 0-3 3v1a3 3 0 0 0-3 3v1a3 3 0 0 0-3 3v4a3 3 0 0 0 3 3h12a3 3 0 0 0 3-3v-4a3 3 0 0 0-3-3V9a3 3 0 0 0-3-3V5a3 3 0 0 0-3-3z"/>
  <!-- Checkmark -->
  <path d="M9 12l2 2 4-4"/>
  <!-- Circuit lines -->
  <line x1="6" y1="16" x2="6" y2="18"/>
  <line x1="12" y1="16" x2="12" y2="18"/>
  <line x1="18" y1="16" x2="18" y2="18"/>
</svg>
